<?xml version="1.0" encoding="utf-8"?>
<!-- Generator: Adobe Illustrator 24.0.1, SVG Export Plug-In . SVG Version: 6.00 Build 0)  -->
<svg version="1.1" id="Layer_1" xmlns="http://www.w3.org/2000/svg" xmlns:xlink="http://www.w3.org/1999/xlink" x="0px" y="0px"
	 viewBox="0 0 643.69 497.37" style="enable-background:new 0 0 643.69 497.37;" xml:space="preserve">
<style type="text/css">
	.st0{display:none;stroke:#000000;stroke-miterlimit:10;}
	.st1{stroke:#000000;stroke-miterlimit:10;}
	.st2{fill:#D9452A;}
	.st3{display:none;fill:#ED2024;stroke:#000000;stroke-miterlimit:10;}
</style>
<rect class="st0" width="643.69" height="497.37"/>
<rect x="181.69" y="189.65" class="st1" width="61.56" height="20.02"/>
<rect x="182.03" y="227.25" class="st1" width="61.56" height="20.02"/>
<rect x="181.03" y="263.57" class="st1" width="61.56" height="20.02"/>
<polygon class="st1" points="94.89,189.65 125.85,239.16 125.85,283.6 147.09,283.6 147.09,239.16 177.69,189.65 156.09,189.65 
	136.29,222.89 116.85,189.65 "/>
<polygon class="st1" points="288.73,220.93 311.41,283.57 332.56,283.57 297.01,189.61 280.45,189.61 245.95,283.57 266.41,283.57 
	"/>
<polygon class="st2" points="275.32,261.24 302.23,261.24 289.69,282.57 "/>
<polygon class="st1" points="477.37,189.65 508.33,239.14 508.33,283.57 529.57,283.57 529.57,239.14 560.17,189.65 538.57,189.65 
	518.77,222.88 499.33,189.65 "/>
<polygon class="st1" points="456.31,220.97 478.99,283.6 500.15,283.6 464.59,189.65 448.03,189.65 413.53,283.6 433.99,283.6 "/>
<polygon class="st2" points="442.9,261.24 469.81,261.24 457.27,282.57 "/>
<polygon class="st1" points="392.81,247.28 392.81,190.49 411.05,190.49 411.05,283.57 394.49,283.41 354.65,225.53 354.65,283.41 
	335.93,283.41 335.93,190.49 351.77,190.49 "/>
<rect x="92.65" y="110.57" class="st3" width="504.48" height="79.08"/>
<rect x="40.81" y="284.44" class="st3" width="562.08" height="79.57"/>
</svg>
